<svg width="20" height="21" viewBox="0 0 20 21" fill="none" xmlns="http://www.w3.org/2000/svg">
<path d="M9.99904 20.1719C15.5219 20.1719 19.9991 15.6948 19.9991 10.1719C19.9991 4.64904 15.5219 0.171875 9.99904 0.171875C4.47619 0.171875 -0.000976562 4.64904 -0.000976562 10.1719C-0.000976562 15.6948 4.47619 20.1719 9.99904 20.1719Z" fill="white"/>
<path d="M15.2324 8.24185C15.2324 7.40354 14.5533 6.72408 13.7155 6.72408H6.59831C5.76064 6.72408 5.08164 7.40371 5.08164 8.24185V12.3118C5.08164 13.1501 5.76076 13.8296 6.59831 13.8296H13.7153C14.5534 13.8296 15.2323 13.1499 15.2323 12.3118L15.2324 8.24185ZM9.14164 11.9938V8.17112L12.0406 10.0825L9.14164 11.9938Z" fill="#305F64"/>
</svg>
