<svg width="50" height="50" viewBox="0 0 50 50" fill="none" xmlns="http://www.w3.org/2000/svg">
<path d="M40.6901 20.3972H35.8789V17.155C35.8789 16.346 35.223 15.6901 34.4141 15.6901H1.46484C0.655859 15.6901 0 16.346 0 17.155V43.8281C0 44.6371 0.655859 45.293 1.46484 45.293H6.45312C8.04727 51.5314 16.851 51.5272 18.4427 45.293H31.5572C33.1514 51.5314 41.9551 51.5272 43.5468 45.293H48.5352C49.3441 45.293 50 44.6371 50 43.8281V29.707C50 24.5735 45.8235 20.3972 40.6901 20.3972ZM12.4479 47.0703C10.6602 47.0703 9.20576 45.6158 9.20576 43.8281C9.38379 39.527 15.5128 39.5282 15.6901 43.8281C15.6901 45.6158 14.2356 47.0703 12.4479 47.0703ZM32.9492 39.7222C32.2866 40.4642 31.8009 41.3665 31.5572 42.3632H18.4427C16.8485 36.1249 8.04482 36.1291 6.45312 42.3632H2.92969V18.6197H32.9492V39.7222ZM37.5521 47.0703C35.7643 47.0703 34.3099 45.6158 34.3099 43.8281C34.4879 39.527 40.6169 39.5282 40.7942 43.8281C40.7942 45.6158 39.3398 47.0703 37.5521 47.0703ZM47.0703 42.3633H43.5484C42.8891 39.6649 40.4508 37.6563 37.5521 37.6563H35.8789V23.3269H39.2253V32.8451C39.2253 33.6541 39.8812 34.31 40.6901 34.31H47.0703V42.3633ZM47.0703 31.3802H42.155V23.4965C44.9692 24.1603 47.0703 26.693 47.0703 29.707V31.3802Z" fill="#244D4D"/>
<path d="M35.9828 12.3438H39.9054C41.8489 12.2663 41.8475 9.49072 39.9054 9.41406H37.712L38.0082 7.63672H39.9054C41.8489 7.55928 41.8475 4.78369 39.9054 4.70703H38.4965L38.7927 2.92969H41.4743C43.4179 2.85225 43.4164 0.0766602 41.4743 0H37.5518C36.8357 0 36.2245 0.517676 36.1068 1.22402L34.5379 10.6381C34.3891 11.5312 35.0789 12.3438 35.9828 12.3438Z" fill="#222222"/>
<path d="M26.5689 12.3438H30.4914C32.435 12.2663 32.4335 9.49072 30.4914 9.41406H28.2981L28.5942 7.63672H30.4914C32.435 7.55928 32.4335 4.78369 30.4914 4.70703H29.0826L29.3789 2.92969H32.0605C34.004 2.85225 34.0025 0.0766602 32.0605 0H28.138C27.4219 0 26.8108 0.517676 26.6931 1.22402L25.124 10.6381C24.9752 11.5312 25.665 12.3438 26.5689 12.3438Z" fill="#244D4D"/>
<path d="M15.3451 12.3238C16.4824 12.5134 16.9628 11.5279 17.0308 11.1197L17.2711 9.67852L20.155 12.0167C20.8216 12.557 21.7376 12.3908 22.2154 11.8014C22.725 11.1729 22.6285 10.2505 22.0001 9.74102L20.3721 8.42119H21.7309C22.447 8.42119 23.0581 7.90352 23.1759 7.19727L24.0914 1.70576C24.2402 0.812598 23.5504 0 22.6465 0H17.155C16.4389 0 15.8277 0.517676 15.71 1.22402L14.801 6.67813L14.8 6.68408C14.7992 6.68799 14.7987 6.6919 14.798 6.6958C14.7948 6.71367 14.7916 6.73164 14.789 6.74971L14.1409 10.6381C14.0079 11.436 14.5471 12.1908 15.3451 12.3238ZM18.3959 2.92969H20.9172L20.4901 5.4915H17.9688L18.3959 2.92969Z" fill="#244D4D"/>
<path d="M6.71545 12.3238C7.85276 12.5134 8.33313 11.5279 8.40119 11.1197L8.8509 8.42131H10.8787C12.8223 8.34387 12.8208 5.56828 10.8787 5.49162H9.33918L9.76613 2.9298H12.4478C14.3913 2.85236 14.3899 0.0767777 12.4478 0.000117536H8.52522C7.8091 0.000117536 7.19797 0.517793 7.08029 1.22414L5.51135 10.6382C5.37824 11.4361 5.9174 12.1908 6.71545 12.3238Z" fill="#244D4D"/>
</svg>
