<svg width="50" height="49" viewBox="0 0 50 49" fill="none" xmlns="http://www.w3.org/2000/svg">
<path d="M47.3217 16.9365C46.6619 14.8935 46.9432 11.8268 45.2283 9.45892C43.5 7.0724 40.494 6.39408 38.7967 5.15267C37.1172 3.92435 35.5547 1.2514 32.7296 0.329525C29.9842 -0.566374 27.1768 0.649349 25 0.649349C22.8235 0.649349 20.0163 -0.566667 17.2704 0.329427C14.4458 1.25111 12.882 3.92464 11.2036 5.15238C9.50811 6.39232 6.4999 7.07249 4.77187 9.45863C3.0585 11.8245 3.33691 14.8983 2.67832 16.9364C2.05156 18.8761 0 21.2041 0 24.219C0 27.2357 2.04922 29.5547 2.67832 31.5015C3.33809 33.5445 3.05684 36.6112 4.77168 38.979C6.4999 41.3657 9.50576 42.0439 11.2033 43.2854C12.8825 44.5135 14.4453 47.1867 17.2704 48.1084C20.014 49.0037 22.8258 47.7886 25 47.7886C27.1712 47.7886 29.9896 49.0025 32.7296 48.1085C35.5543 47.1869 37.1171 44.5139 38.7964 43.2856C40.4919 42.0456 43.5001 41.3655 45.2281 38.9793C46.9416 36.6133 46.663 33.5399 47.3217 31.5016C47.9484 29.5618 50 27.2337 50 24.219C50 21.2025 47.9513 18.8841 47.3217 16.9365ZM43.6048 30.3004C42.8357 32.6808 43.0372 35.3448 42.0646 36.6879C41.0788 38.049 38.4891 38.6706 36.4907 40.1324C34.5143 41.5778 33.129 43.8691 31.5179 44.3948C29.9937 44.8922 27.5097 43.8822 25.0001 43.8822C22.4722 43.8822 20.0138 44.8944 18.4822 44.3948C16.8713 43.8691 15.488 41.5793 13.5094 40.1323C11.5229 38.6794 8.91836 38.045 7.93545 36.6877C6.96592 35.3491 7.15977 32.6666 6.39541 30.3005C5.64619 27.9823 3.90625 25.9749 3.90625 24.219C3.90625 22.4613 5.64463 20.4609 6.39522 18.1375C7.16426 15.7573 6.96279 13.0931 7.93545 11.75C8.92061 10.3899 11.5123 9.76615 13.5094 8.3056C15.4921 6.8555 16.8687 4.56966 18.482 4.0432C20.005 3.54632 22.4971 4.55579 24.9999 4.55579C27.5324 4.55579 29.9847 3.5429 31.5178 4.0432C33.1285 4.56878 34.513 6.85941 36.4907 8.3057C38.477 9.75853 41.0816 10.393 42.0646 11.7501C43.0343 13.0891 42.8394 15.7688 43.6046 18.1373V18.1374C44.3538 20.4557 46.0938 22.463 46.0938 24.219C46.0938 25.9767 44.3554 27.9771 43.6048 30.3004ZM33.9983 17.9499C34.7611 18.7127 34.7611 19.9494 33.9983 20.712L24.2224 30.488C23.4596 31.2508 22.2229 31.2507 21.4602 30.488L16.0018 25.0296C15.239 24.2668 15.2389 23.0302 16.0017 22.2675C16.7645 21.5048 18.0013 21.5047 18.7638 22.2675L22.8412 26.3449L31.236 17.95C31.9988 17.1872 33.2355 17.1872 33.9983 17.9499Z" fill="#244D4D"/>
</svg>
