<svg width="24" height="15" viewBox="0 0 24 15" fill="none" xmlns="http://www.w3.org/2000/svg">
<path d="M23.625 2.41821H0.375C0.167542 2.41821 0 2.25067 0 2.04321V0.54248C0 0.335022 0.167542 0.16748 0.375 0.16748H23.625C23.8325 0.16748 24 0.335022 24 0.54248V2.04321C24 2.25067 23.8325 2.41821 23.625 2.41821ZM0.75 1.66821H23.25V0.91748H0.75V1.66821Z" fill="#666666"/>
<path d="M0.75 14.05C0.542542 14.05 0.375 13.8824 0.375 13.675V2.11005C0.375 1.90259 0.542542 1.73505 0.75 1.73505C0.957458 1.73505 1.125 1.90259 1.125 2.11005V13.675C1.125 13.8824 0.957458 14.05 0.75 14.05Z" fill="#666666"/>
<path d="M1.875 14.05C1.66754 14.05 1.5 13.8824 1.5 13.675V2.11005C1.5 1.90259 1.66754 1.73505 1.875 1.73505C2.08246 1.73505 2.25 1.90259 2.25 2.11005V13.675C2.25 13.8824 2.08246 14.05 1.875 14.05Z" fill="#666666"/>
<path d="M22.125 14.05C21.9175 14.05 21.75 13.8824 21.75 13.675V2.11005C21.75 1.90259 21.9175 1.73505 22.125 1.73505C22.3325 1.73505 22.5 1.90259 22.5 2.11005V13.675C22.5 13.8824 22.3325 14.05 22.125 14.05Z" fill="#666666"/>
<path d="M23.25 14.05C23.0425 14.05 22.875 13.8824 22.875 13.675V2.11005C22.875 1.90259 23.0425 1.73505 23.25 1.73505C23.4575 1.73505 23.625 1.90259 23.625 2.11005V13.675C23.625 13.8824 23.4575 14.05 23.25 14.05Z" fill="#666666"/>
<path d="M1.875 14.05H0.75C0.542542 14.05 0.375 13.8824 0.375 13.675C0.375 13.4675 0.542542 13.3 0.75 13.3H1.875C2.08246 13.3 2.25 13.4675 2.25 13.675C2.25 13.8824 2.08246 14.05 1.875 14.05Z" fill="#666666"/>
<path d="M23.25 14.05H22.125C21.9175 14.05 21.75 13.8824 21.75 13.675C21.75 13.4675 21.9175 13.3 22.125 13.3H23.25C23.4575 13.3 23.625 13.4675 23.625 13.675C23.625 13.8824 23.4575 14.05 23.25 14.05Z" fill="#666666"/>
<path d="M22.125 7.67279H1.875C1.66754 7.67279 1.5 7.50507 1.5 7.29779C1.5 7.09033 1.66754 6.92279 1.875 6.92279H22.125C22.3325 6.92279 22.5 7.09033 22.5 7.29779C22.5 7.50507 22.3325 7.67279 22.125 7.67279Z" fill="#666666"/>
<path d="M22.125 8.79852H1.875C1.66754 8.79852 1.5 8.6308 1.5 8.42352C1.5 8.21606 1.66754 8.04852 1.875 8.04852H22.125C22.3325 8.04852 22.5 8.21606 22.5 8.42352C22.5 8.6308 22.3325 8.79852 22.125 8.79852Z" fill="#666666"/>
<path d="M3.37427 7.67352C3.16681 7.67352 2.99927 7.5058 2.99927 7.29852C2.99927 6.26453 3.84009 5.42352 4.8739 5.42352C5.08118 5.42352 5.2489 5.59106 5.2489 5.79852C5.2489 6.0058 5.08118 6.17352 4.8739 6.17352C4.25409 6.17352 3.74927 6.67816 3.74927 7.29852C3.74927 7.5058 3.58154 7.67352 3.37427 7.67352Z" fill="#666666"/>
<path d="M7.125 7.67352C6.91754 7.67352 6.75 7.5058 6.75 7.29852C6.75 6.67816 6.24518 6.17352 5.62537 6.17352C5.41809 6.17352 5.25037 6.0058 5.25037 5.79852C5.25037 5.59106 5.41809 5.42352 5.62537 5.42352C6.65918 5.42352 7.5 6.26453 7.5 7.29852C7.5 7.5058 7.33246 7.67352 7.125 7.67352Z" fill="#666666"/>
<path d="M3.74927 6.68164C3.54181 6.68164 3.37427 6.51392 3.37427 6.30664V4.29852C3.37427 4.09106 3.54181 3.92352 3.74927 3.92352C3.95654 3.92352 4.12427 4.09106 4.12427 4.29852V6.30664C4.12427 6.51392 3.95654 6.68164 3.74927 6.68164Z" fill="#666666"/>
<path d="M6.74854 6.68164C6.54108 6.68164 6.37354 6.51392 6.37354 6.30664V4.29852C6.37354 4.09106 6.54108 3.92352 6.74854 3.92352C6.95581 3.92352 7.12354 4.09106 7.12354 4.29852V6.30664C7.12354 6.51392 6.95581 6.68164 6.74854 6.68164Z" fill="#666666"/>
<path d="M4.5 5.04926C4.29254 5.04926 4.125 4.88153 4.125 4.67426V3.54852C4.125 3.34106 4.29254 3.17352 4.5 3.17352C4.70746 3.17352 4.875 3.34106 4.875 3.54852V4.67426C4.875 4.88153 4.70746 5.04926 4.5 5.04926Z" fill="#666666"/>
<path d="M6 3.92352H4.5C4.29254 3.92352 4.125 3.7558 4.125 3.54852C4.125 3.34106 4.29254 3.17352 4.5 3.17352H6C6.20746 3.17352 6.375 3.34106 6.375 3.54852C6.375 3.7558 6.20746 3.92352 6 3.92352Z" fill="#666666"/>
<path d="M6 5.04926C5.79254 5.04926 5.625 4.88153 5.625 4.67426V3.54852C5.625 3.34106 5.79254 3.17352 6 3.17352C6.20746 3.17352 6.375 3.34106 6.375 3.54852V4.67426C6.375 4.88153 6.20746 5.04926 6 5.04926Z" fill="#666666"/>
<path d="M4.5 4.67352H3.74927C3.54181 4.67352 3.37427 4.5058 3.37427 4.29852C3.37427 4.09106 3.54181 3.92352 3.74927 3.92352H4.5C4.70746 3.92352 4.875 4.09106 4.875 4.29852C4.875 4.5058 4.70746 4.67352 4.5 4.67352Z" fill="#666666"/>
<path d="M6.74854 4.67352H6C5.79254 4.67352 5.625 4.5058 5.625 4.29852C5.625 4.09106 5.79254 3.92352 6 3.92352H6.74854C6.95581 3.92352 7.12354 4.09106 7.12354 4.29852C7.12354 4.5058 6.95581 4.67352 6.74854 4.67352Z" fill="#666666"/>
<path d="M5.62537 6.17352H4.8739C4.66644 6.17352 4.4989 6.0058 4.4989 5.79852C4.4989 5.59106 4.66644 5.42352 4.8739 5.42352H5.62537C5.83282 5.42352 6.00037 5.59106 6.00037 5.79852C6.00037 6.0058 5.83282 6.17352 5.62537 6.17352Z" fill="#666666"/>
<path d="M8.24927 7.67352C8.04181 7.67352 7.87427 7.5058 7.87427 7.29852C7.87427 6.26453 8.71509 5.42352 9.7489 5.42352C9.95618 5.42352 10.1239 5.59106 10.1239 5.79852C10.1239 6.0058 9.95618 6.17352 9.7489 6.17352C9.12909 6.17352 8.62427 6.67816 8.62427 7.29852C8.62427 7.5058 8.45654 7.67352 8.24927 7.67352Z" fill="#666666"/>
<path d="M12 7.67352C11.7925 7.67352 11.625 7.5058 11.625 7.29852C11.625 6.67816 11.1202 6.17352 10.5004 6.17352C10.2931 6.17352 10.1254 6.0058 10.1254 5.79852C10.1254 5.59106 10.2931 5.42352 10.5004 5.42352C11.5342 5.42352 12.375 6.26453 12.375 7.29852C12.375 7.5058 12.2075 7.67352 12 7.67352Z" fill="#666666"/>
<path d="M8.62427 6.68164C8.41681 6.68164 8.24927 6.51392 8.24927 6.30664V4.29852C8.24927 4.09106 8.41681 3.92352 8.62427 3.92352C8.83154 3.92352 8.99927 4.09106 8.99927 4.29852V6.30664C8.99927 6.51392 8.83154 6.68164 8.62427 6.68164Z" fill="#666666"/>
<path d="M11.6235 6.68164C11.4161 6.68164 11.2485 6.51392 11.2485 6.30664V4.29852C11.2485 4.09106 11.4161 3.92352 11.6235 3.92352C11.8308 3.92352 11.9985 4.09106 11.9985 4.29852V6.30664C11.9985 6.51392 11.8308 6.68164 11.6235 6.68164Z" fill="#666666"/>
<path d="M9.375 5.04926C9.16754 5.04926 9 4.88153 9 4.67426V3.54852C9 3.34106 9.16754 3.17352 9.375 3.17352C9.58246 3.17352 9.75 3.34106 9.75 3.54852V4.67426C9.75 4.88153 9.58246 5.04926 9.375 5.04926Z" fill="#666666"/>
<path d="M10.875 3.92352H9.375C9.16754 3.92352 9 3.7558 9 3.54852C9 3.34106 9.16754 3.17352 9.375 3.17352H10.875C11.0825 3.17352 11.25 3.34106 11.25 3.54852C11.25 3.7558 11.0825 3.92352 10.875 3.92352Z" fill="#666666"/>
<path d="M10.875 5.04926C10.6675 5.04926 10.5 4.88153 10.5 4.67426V3.54852C10.5 3.34106 10.6675 3.17352 10.875 3.17352C11.0825 3.17352 11.25 3.34106 11.25 3.54852V4.67426C11.25 4.88153 11.0825 5.04926 10.875 5.04926Z" fill="#666666"/>
<path d="M9.375 4.67352H8.62427C8.41681 4.67352 8.24927 4.5058 8.24927 4.29852C8.24927 4.09106 8.41681 3.92352 8.62427 3.92352H9.375C9.58246 3.92352 9.75 4.09106 9.75 4.29852C9.75 4.5058 9.58246 4.67352 9.375 4.67352Z" fill="#666666"/>
<path d="M11.6235 4.67352H10.875C10.6675 4.67352 10.5 4.5058 10.5 4.29852C10.5 4.09106 10.6675 3.92352 10.875 3.92352H11.6235C11.8308 3.92352 11.9985 4.09106 11.9985 4.29852C11.9985 4.5058 11.8308 4.67352 11.6235 4.67352Z" fill="#666666"/>
<path d="M10.5004 6.17352H9.7489C9.54144 6.17352 9.3739 6.0058 9.3739 5.79852C9.3739 5.59106 9.54144 5.42352 9.7489 5.42352H10.5004C10.7078 5.42352 10.8754 5.59106 10.8754 5.79852C10.8754 6.0058 10.7078 6.17352 10.5004 6.17352Z" fill="#666666"/>
<path d="M12.0079 13.2993C11.8004 13.2993 11.6329 13.1315 11.6329 12.9243C11.6329 12.3035 12.1381 11.7985 12.7586 11.7985C12.9661 11.7985 13.1336 11.9661 13.1336 12.1735C13.1336 12.3808 12.9661 12.5485 12.7586 12.5485C12.5513 12.5485 12.3829 12.7168 12.3829 12.9243C12.3829 13.1315 12.215 13.2993 12.0079 13.2993Z" fill="#666666"/>
<path d="M15.759 13.2993C15.5517 13.2993 15.384 13.1315 15.384 12.9243C15.384 12.7172 15.2161 12.5493 15.009 12.5493C14.8017 12.5493 14.634 12.3815 14.634 12.1743C14.634 11.9668 14.8017 11.7993 15.009 11.7993C15.6293 11.7993 16.134 12.3039 16.134 12.9243C16.134 13.1315 15.9664 13.2993 15.759 13.2993Z" fill="#666666"/>
<path d="M15.759 14.05H12.0079C11.8004 14.05 11.6329 13.8824 11.6329 13.675C11.6329 13.4675 11.8004 13.2993 12.0079 13.2993H15.759C15.9664 13.2993 16.1343 13.4675 16.1343 13.675C16.1343 13.8824 15.9664 14.05 15.759 14.05Z" fill="#666666"/>
<path d="M15.039 12.5485H12.7282C12.5209 12.5485 12.3532 12.3808 12.3532 12.1735C12.3532 11.9661 12.5209 11.7985 12.7282 11.7985H15.039C15.2465 11.7985 15.414 11.9661 15.414 12.1735C15.414 12.3808 15.2465 12.5485 15.039 12.5485Z" fill="#666666"/>
<path d="M12.7586 12.5485C12.5511 12.5485 12.3829 12.3808 12.3829 12.1735V9.92426C12.3829 9.7168 12.5504 9.54926 12.7579 9.54926C12.9653 9.54926 13.1329 9.7168 13.1329 9.92426L13.1336 12.1735C13.1336 12.3808 12.9661 12.5485 12.7586 12.5485Z" fill="#666666"/>
<path d="M15.009 12.5493C14.8017 12.5493 14.634 12.3815 14.634 12.1743L14.6343 9.92426C14.6343 9.7168 14.8021 9.54926 15.0093 9.54926C15.2168 9.54926 15.3843 9.7168 15.3843 9.92426V12.1743C15.3843 12.3815 15.2164 12.5493 15.009 12.5493Z" fill="#666666"/>
<path d="M12.0079 14.05C11.8004 14.05 11.6329 13.8824 11.6329 13.675V12.9243C11.6329 12.7168 11.8004 12.5493 12.0079 12.5493C12.2153 12.5493 12.3829 12.7168 12.3829 12.9243V13.675C12.3829 13.8824 12.215 14.05 12.0079 14.05Z" fill="#666666"/>
<path d="M15.759 14.05C15.5517 14.05 15.384 13.8824 15.384 13.675V12.9243C15.384 12.7168 15.5517 12.5493 15.759 12.5493C15.9664 12.5493 16.134 12.7168 16.134 12.9243L16.1343 13.675C16.1343 13.8824 15.9664 14.05 15.759 14.05Z" fill="#666666"/>
<path d="M15.0093 10.2993H12.7579C12.5504 10.2993 12.3829 10.1315 12.3829 9.92426C12.3829 9.7168 12.5504 9.54926 12.7579 9.54926H15.0093C15.2168 9.54926 15.3843 9.7168 15.3843 9.92426C15.3843 10.1315 15.2168 10.2993 15.0093 10.2993Z" fill="#666666"/>
<path d="M15.384 11.4243H12.3829C12.1754 11.4243 12.0079 11.2565 12.0079 11.0493C12.0079 10.8418 12.1754 10.6743 12.3829 10.6743H15.384C15.5914 10.6743 15.759 10.8418 15.759 11.0493C15.759 11.2565 15.5914 11.4243 15.384 11.4243Z" fill="#666666"/>
<path d="M16.8829 13.2993C16.6754 13.2993 16.5079 13.1315 16.5079 12.9243C16.5079 12.3035 17.0131 11.7985 17.6336 11.7985C17.8411 11.7985 18.0086 11.9661 18.0086 12.1735C18.0086 12.3808 17.8411 12.5485 17.6336 12.5485C17.4263 12.5485 17.2579 12.7168 17.2579 12.9243C17.2579 13.1315 17.09 13.2993 16.8829 13.2993Z" fill="#666666"/>
<path d="M20.634 13.2993C20.4267 13.2993 20.259 13.1315 20.259 12.9243C20.259 12.7172 20.0911 12.5493 19.884 12.5493C19.6767 12.5493 19.509 12.3815 19.509 12.1743C19.509 11.9668 19.6767 11.7993 19.884 11.7993C20.5043 11.7993 21.009 12.3039 21.009 12.9243C21.009 13.1315 20.8414 13.2993 20.634 13.2993Z" fill="#666666"/>
<path d="M20.634 14.05H16.8829C16.6754 14.05 16.5079 13.8824 16.5079 13.675C16.5079 13.4675 16.6754 13.2993 16.8829 13.2993H20.634C20.8414 13.2993 21.0093 13.4675 21.0093 13.675C21.0093 13.8824 20.8414 14.05 20.634 14.05Z" fill="#666666"/>
<path d="M19.914 12.5485H17.6032C17.3959 12.5485 17.2282 12.3808 17.2282 12.1735C17.2282 11.9661 17.3959 11.7985 17.6032 11.7985H19.914C20.1215 11.7985 20.289 11.9661 20.289 12.1735C20.289 12.3808 20.1215 12.5485 19.914 12.5485Z" fill="#666666"/>
<path d="M17.6336 12.5485C17.4261 12.5485 17.2579 12.3808 17.2579 12.1735V9.92426C17.2579 9.7168 17.4254 9.54926 17.6329 9.54926C17.8403 9.54926 18.0079 9.7168 18.0079 9.92426L18.0086 12.1735C18.0086 12.3808 17.8411 12.5485 17.6336 12.5485Z" fill="#666666"/>
<path d="M19.884 12.5493C19.6767 12.5493 19.509 12.3815 19.509 12.1743L19.5093 9.92426C19.5093 9.7168 19.6771 9.54926 19.8843 9.54926C20.0918 9.54926 20.2593 9.7168 20.2593 9.92426V12.1743C20.2593 12.3815 20.0914 12.5493 19.884 12.5493Z" fill="#666666"/>
<path d="M16.8829 14.05C16.6754 14.05 16.5079 13.8824 16.5079 13.675V12.9243C16.5079 12.7168 16.6754 12.5493 16.8829 12.5493C17.0903 12.5493 17.2579 12.7168 17.2579 12.9243V13.675C17.2579 13.8824 17.09 14.05 16.8829 14.05Z" fill="#666666"/>
<path d="M20.634 14.05C20.4267 14.05 20.259 13.8824 20.259 13.675V12.9243C20.259 12.7168 20.4267 12.5493 20.634 12.5493C20.8414 12.5493 21.009 12.7168 21.009 12.9243L21.0093 13.675C21.0093 13.8824 20.8414 14.05 20.634 14.05Z" fill="#666666"/>
<path d="M19.8843 10.2993H17.6329C17.4254 10.2993 17.2579 10.1315 17.2579 9.92426C17.2579 9.7168 17.4254 9.54926 17.6329 9.54926H19.8843C20.0918 9.54926 20.2593 9.7168 20.2593 9.92426C20.2593 10.1315 20.0918 10.2993 19.8843 10.2993Z" fill="#666666"/>
<path d="M20.259 11.4243H17.2579C17.0504 11.4243 16.8829 11.2565 16.8829 11.0493C16.8829 10.8418 17.0504 10.6743 17.2579 10.6743H20.259C20.4664 10.6743 20.634 10.8418 20.634 11.0493C20.634 11.2565 20.4664 11.4243 20.259 11.4243Z" fill="#666666"/>
</svg>
