<svg width="24" height="18" viewBox="0 0 24 18" fill="none" xmlns="http://www.w3.org/2000/svg">
<path d="M4.45312 8.2644H10.5938C11.1336 8.2644 11.6265 8.4685 12 8.80323C12.3735 8.46845 12.8664 8.2644 13.4062 8.2644H19.5469V0.723858C19.5469 0.337373 19.2376 0.0157637 18.8512 0.0144043C18.8453 0.0144043 19.0911 0.0144043 5.15625 0.0144043C4.75612 0.0144043 4.45312 0.342436 4.45312 0.723858V8.2644Z" fill="#666666"/>
<path d="M12.7031 10.3738V12.0144H19.5469C19.5469 10.9758 19.5469 10.7625 19.5469 9.67065H13.4062C13.0185 9.67065 12.7031 9.98608 12.7031 10.3738Z" fill="#666666"/>
<path d="M21.7272 4.89048C21.2938 4.90398 20.9531 5.26754 20.9531 5.70114C20.9531 5.81242 20.9531 13.1169 20.9531 12.7175C20.9531 13.1058 20.6383 13.4207 20.25 13.4207C19.6879 13.4207 3.21623 13.4207 3.75 13.4207C3.36169 13.4207 3.04688 13.1058 3.04688 12.7175C3.04688 12.4581 3.04688 5.6335 3.04688 5.70114C3.04688 5.26754 2.70623 4.90398 2.27283 4.89048C1.02361 4.85158 0 5.85095 0 7.09253V14.3113C0 15.4763 0.944391 16.4207 2.10938 16.4207H3.04688V17.1977C3.04688 17.5763 3.33783 17.902 3.71602 17.9199C4.1198 17.9389 4.45312 17.6171 4.45312 17.2175V16.4207H19.5469V17.1977C19.5469 17.5763 19.8378 17.902 20.216 17.9199C20.6198 17.9389 20.9531 17.6171 20.9531 17.2175V16.4207H21.8906C23.0556 16.4207 24 15.4763 24 14.3113V7.13214C24 5.83412 22.9684 4.85181 21.7272 4.89048Z" fill="#666666"/>
<path d="M11.2969 10.3738C11.2969 9.98608 10.9815 9.67065 10.5938 9.67065H4.45312V12.0144H11.2969V10.3738Z" fill="#666666"/>
</svg>
