<svg width="16" height="12" viewBox="0 0 16 12" fill="none" xmlns="http://www.w3.org/2000/svg">
<path d="M10.6059 6.082L15.9999 9.492V2.528L10.6059 6.082Z" fill="#7F7F7F"/>
<path d="M0 2.528V9.492L5.394 6.082L0 2.528Z" fill="#7F7F7F"/>
<path d="M15 0.5H1.00004C0.501038 0.5 0.105038 0.872 0.0300378 1.351L8.00004 6.602L15.97 1.351C15.895 0.872 15.499 0.5 15 0.5Z" fill="#7F7F7F"/>
<path d="M9.69007 6.68609L8.27507 7.61809C8.19107 7.67309 8.09607 7.70009 8.00007 7.70009C7.90407 7.70009 7.80907 7.67309 7.72507 7.61809L6.31007 6.68509L0.0320719 10.6561C0.109072 11.1311 0.503072 11.5001 1.00007 11.5001H15.0001C15.4971 11.5001 15.8911 11.1311 15.9681 10.6561L9.69007 6.68609Z" fill="#7F7F7F"/>
</svg>
