<svg width="43" height="50" viewBox="0 0 43 50" fill="none" xmlns="http://www.w3.org/2000/svg">
<path d="M42.528 13.5663L42.5265 13.5274C42.5047 13.0471 42.4902 12.539 42.4815 11.9736C42.4407 9.21676 40.2491 6.93634 37.4919 6.78223C31.7431 6.46141 27.296 4.58687 23.4962 0.883195L23.4637 0.852296C22.2243 -0.284099 20.3548 -0.284099 19.115 0.852296L19.0826 0.883195C15.2828 4.58687 10.8356 6.46141 5.08687 6.78261C2.32999 6.93634 0.138074 9.21676 0.0972567 11.974C0.0888644 12.5355 0.0739871 13.0437 0.0522434 13.5274L0.0499546 13.6178C-0.0618157 19.4798 -0.20067 26.7754 2.23997 33.3973C3.58197 37.0388 5.61444 40.2042 8.28052 42.8062C11.317 45.7695 15.2942 48.122 20.1015 49.7982C20.2579 49.8527 20.4204 49.897 20.5859 49.9301C20.8194 49.9767 21.0544 50 21.2894 50C21.5244 50 21.7597 49.9767 21.9928 49.9301C22.1584 49.897 22.322 49.8523 22.4792 49.7974C27.2807 48.1182 31.2537 45.7645 34.2875 42.8016C36.9525 40.1989 38.9849 37.0327 40.3281 33.3904C42.7779 26.7487 42.6394 19.4394 42.528 13.5663ZM37.5754 32.3753C35.0013 39.3547 29.7465 44.1478 21.511 47.0279C21.4816 47.0379 21.4503 47.0466 21.4179 47.0531C21.3329 47.0699 21.2463 47.0699 21.16 47.0527C21.128 47.0462 21.0967 47.0379 21.0677 47.0279C12.8234 44.1532 7.56527 39.3627 4.99303 32.383C2.7435 26.2791 2.87092 19.582 2.98345 13.6738L2.98421 13.641C3.0071 13.1333 3.02236 12.6015 3.03075 12.0171C3.04906 10.793 4.0241 9.78019 5.25052 9.71191C8.50368 9.53033 11.3616 8.90167 13.9877 7.79007C16.6103 6.67999 18.9395 5.11521 21.1078 3.00645C21.218 2.91337 21.3611 2.91299 21.4709 3.00645C23.6396 5.11521 25.9688 6.67999 28.5911 7.79007C31.2171 8.90167 34.0751 9.53033 37.3286 9.71191C38.555 9.78019 39.5301 10.793 39.548 12.0175C39.5568 12.605 39.572 13.1367 39.5949 13.641C39.7071 19.5561 39.8314 26.2585 37.5754 32.3753Z" fill="#244D4D"/>
<path d="M21.2885 12.5402C14.4174 12.5402 8.82776 18.1302 8.82776 25.0009C8.82776 31.8719 14.4174 37.462 21.2885 37.462C28.1591 37.462 33.7492 31.8719 33.7492 25.0009C33.7492 18.1302 28.1591 12.5402 21.2885 12.5402ZM21.2885 34.5277C16.0352 34.5277 11.7616 30.2541 11.7616 25.0009C11.7616 19.7476 16.0352 15.474 21.2885 15.474C26.5413 15.474 30.8149 19.7476 30.8149 25.0009C30.8149 30.2541 26.5413 34.5277 21.2885 34.5277Z" fill="#244D4D"/>
<path d="M24.8697 21.1324L19.082 26.92L17.5111 25.3491C16.9382 24.7762 16.0093 24.7762 15.4363 25.3491C14.8637 25.9221 14.8637 26.851 15.4363 27.4236L18.0448 30.0321C18.3313 30.3185 18.7067 30.4616 19.082 30.4616C19.4574 30.4616 19.8328 30.3185 20.1192 30.0321L26.9445 23.2068C27.5171 22.6338 27.5171 21.705 26.9445 21.1324C26.3715 20.559 25.4427 20.559 24.8697 21.1324Z" fill="#244D4D"/>
</svg>
