<svg width="112" height="47" viewBox="0 0 112 47" fill="none" xmlns="http://www.w3.org/2000/svg">
<path d="M7.81512 18.1323C7.81512 16.9278 8.80358 16.4643 10.441 16.4643C12.7885 16.4643 15.7538 17.1749 18.1015 18.4414V11.1821C15.5377 10.1628 13.0048 9.76119 10.441 9.76119C4.17015 9.76119 0 13.0356 0 18.5033C0 27.0286 11.7381 25.6697 11.7381 29.3457C11.7381 30.7664 10.5027 31.2299 8.77273 31.2299C6.20896 31.2299 2.93453 30.1795 0.339693 28.7586V36.1105C3.21254 37.3461 6.11622 37.871 8.77273 37.871C15.1978 37.871 19.6151 34.6896 19.6151 29.1602C19.5843 19.955 7.81512 21.592 7.81512 18.1323ZM28.6967 3.58329L21.1596 5.18945L21.1288 29.9323C21.1288 34.5043 24.5576 37.871 29.1294 37.871C31.6623 37.871 33.5156 37.4078 34.5349 36.8517V30.5811C33.5467 30.9827 28.6659 32.4036 28.6659 27.8318V16.8659H34.5349V10.2864H28.6659L28.6967 3.58329ZM44.1419 12.5721L43.6476 10.2864H36.9753V37.315H44.6979V18.9974C46.5202 16.6189 49.6093 17.0513 50.567 17.391V10.2864C49.5785 9.91562 45.9644 9.23601 44.1419 12.5721ZM52.4511 10.2864H60.2046V37.315H52.4511V10.2864ZM52.4511 7.9387L60.2046 6.27064V0L52.4511 1.63722V7.93849V7.9387ZM76.3291 9.76119C73.3019 9.76119 71.3558 11.1821 70.2748 12.1708L69.873 10.2555H63.0774V46.273L70.7998 44.636L70.8308 35.8941C71.9429 36.6973 73.5799 37.8402 76.2983 37.8402C81.8277 37.8402 86.8627 33.392 86.8627 23.6C86.8318 14.6418 81.7349 9.76119 76.3291 9.76119ZM74.4758 31.0444C72.6533 31.0444 71.5719 30.3958 70.8308 29.5926L70.7998 18.1323C71.603 17.2366 72.715 16.6189 74.4758 16.6189C77.2868 16.6189 79.2328 19.7695 79.2328 23.8161C79.2328 27.9554 77.3176 31.0444 74.4758 31.0444ZM111.204 23.9089C111.204 16.001 107.374 9.76119 100.053 9.76119C92.7007 9.76119 88.2525 16.0012 88.2525 23.8472C88.2525 33.1449 93.5041 37.8402 101.041 37.8402C104.717 37.8402 107.497 37.0062 109.598 35.8324V29.6543C107.497 30.7047 105.088 31.3534 102.03 31.3534C99.0332 31.3534 96.3767 30.3031 96.037 26.6581H111.142C111.142 26.2563 111.204 24.6501 111.204 23.9089ZM95.9443 20.9743C95.9443 17.4838 98.0758 16.0318 100.022 16.0318C101.906 16.0318 103.914 17.4838 103.914 20.9743H95.9443Z" fill="#154444" fill-opacity="0.86"/>
</svg>
